PathFileType	4	(X/Y/Z)	P:\Projects\LMB_grand_challenge_database\project_only\opensim\experimental_data\SixthCompetition/DM_ngait_og5_new.trc
DataRate	CameraRate	NumFrames	NumMarkers	Units	OrigDataRate	OrigDataStartFrame	OrigNumFrames
120	120	4	68	mm	120	128	342
Frame#	Time	Sternum			Neck			R_Shoulder			L_Shoulder			Xiphoid			Thoracic			R_Asis			L_Asis			R_Psis			L_Psis			Lumbar			R_Elbow			R_ElbowMedial			R_ShoulderAnterior			R_ShoulderPosterior			R_Wrist			R_Radius			R_Ulna			L_Elbow			L_ElbowMedial			L_ShoulderAnterior			L_ShoulderPosterior			L_Wrist			L_Ulna			L_Radius			L_Thigh_Superior			L_Thigh_Inferior			L_Thigh_Lateral			L_Knee_Lateral			L_Knee_Medial			L_Patella			L_Shank_Superior			L_Shank_Inferior			L_Shank_Lateral			L_Ankle_Lateral			L_Ankle_Medial			R_Thigh_Superior			R_Thigh_Inferior			R_Thigh_Lateral			R_Knee_Lateral			R_Knee_Medial			R_Patella			R_Shank_Superior			R_Shank_Inferior			R_Shank_Lateral			R_Ankle_Lateral			RankleMedial			R_Heel			R_Toe			R_Midfoot_Medial			R_Midfoot_Lateral			R_Hindfoot			R_Midfoot_Superior			R_ToeMedial			R_ToeLateral			L_Heel			L_Toe			L_Midfoot_Medial			L_Midfoot_Lateral			L_Hindfoot			L_Midfoot_Superior			L_ToeMedial			L_ToeLateral			Oglobal			Sacral			Xglobal			Yglobal			Zglobal			
		X1	Y1	Z1	X2	Y2	Z2	X3	Y3	Z3	X4	Y4	Z4	X5	Y5	Z5	X6	Y6	Z6	X7	Y7	Z7	X8	Y8	Z8	X9	Y9	Z9	X10	Y10	Z10	X11	Y11	Z11	X12	Y12	Z12	X13	Y13	Z13	X14	Y14	Z14	X15	Y15	Z15	X16	Y16	Z16	X17	Y17	Z17	X18	Y18	Z18	X19	Y19	Z19	X20	Y20	Z20	X21	Y21	Z21	X22	Y22	Z22	X23	Y23	Z23	X24	Y24	Z24	X25	Y25	Z25	X26	Y26	Z26	X27	Y27	Z27	X28	Y28	Z28	X29	Y29	Z29	X30	Y30	Z30	X31	Y31	Z31	X32	Y32	Z32	X33	Y33	Z33	X34	Y34	Z34	X35	Y35	Z35	X36	Y36	Z36	X37	Y37	Z37	X38	Y38	Z38	X39	Y39	Z39	X40	Y40	Z40	X41	Y41	Z41	X42	Y42	Z42	X43	Y43	Z43	X44	Y44	Z44	X45	Y45	Z45	X46	Y46	Z46	X47	Y47	Z47	X48	Y48	Z48	X49	Y49	Z49	X50	Y50	Z50	X51	Y51	Z51	X52	Y52	Z52	X53	Y53	Z53	X54	Y54	Z54	X55	Y55	Z55	X56	Y56	Z56	X57	Y57	Z57	X58	Y58	Z58	X59	Y59	Z59	X60	Y60	Z60	X61	Y61	Z61	X62	Y62	Z62	X63	Y63	Z63	X64	Y64	Z64	X65	Y65	Z65	X66	Y66	Z66	X67	Y67	Z67	X68	Y68	Z68	

129	2.683333	-218.887	1461.76	215.586	-60.7203	1385.19	174.516	-87.52809999999999	1400.76	358.565	-194.732	1431.79	26.3935	-41.3337	1216.73	169.793	-305.452	1272.26	213.954	-105.182	989.246	317.368	-128.445	983.585	37.4136	-315.396	1026.65	225.97	-321.412	1026.16	147.26	-317.531	1076.29	186.371	-77.85039999999999	1087.46	461.649	-0	0	0	-0	0	0	-0	0	0	19.6324	826.354	417.791	6.20872	839.213	374.958	-22.8962	828.977	441.01	-293.828	1105.99	-59.3602	-0	0	0	-0	0	0	-0	0	0	-271.181	840.812	-90.00790000000001	-314.565	854.4690000000001	-80.9198	-247.746	852.506	-49.2252	-148.063	823.981	0.444333	-35.194	629.8150000000001	42.5509	-23.4461	729.633	70.41459999999999	-0	0	0	-0	0	0	28.2171	546.087	84.7132	-43.7728	471.644	28.8556	-46.0842	199.904	28.7029	0.114704	330.427	93.4348	-0	0	0	-0	0	0	-206.92	804.268	344.28	-230.048	589.112	297.126	-140.045	705.229	313.873	-0	0	0	-0	0	0	-169.885	493.763	220.071	-300.94	397.509	300.602	-339.574	193.222	278.554	-254.895	308.588	212.26	-0	0	0	-0	0	0	-444.737	66.05410000000001	217.209	-145.058	50.2736	236.346	-221.109	28.8826	179.456	-239.169	26.6959	295.307	-348.955	28.4004	276.097	-279.921	118.372	230.757	-176.95	38.9056	191.474	-188.802	38.5237	282.276	-98.3312	73.98399999999999	91.7033	194.765	90.967	44.1251	127.287	65.9594	105.838	98.08450000000001	61.4814	-4.76623	-6.0187	46.4092	20.1537	57.4819	145.133	60.1544	166.303	70.2587	91.21559999999999	152.138	68.9402	-3.00116	-0	0	0	-318.404	1026.41	186.615	-200	0	0	-0	0	200	-0	200	0	
130	2.691667	-209.966	1460.8	214.928	-52.1688	1383.72	173.567	-78.45140000000001	1399.53	357.787	-186.033	1430.79	25.5008	-33.1137	1215.37	169.208	-296.838	1271.62	213.251	-97.5159	988.265	316.996	-120.287	982.274	37.1204	-307.462	1026.06	225.146	-313.25	1025.56	146.691	-309.393	1075.7	185.553	-68.4358	1086.5	460.906	-0	0	0	-0	0	0	-0	0	0	29.6875	825.451	417.075	15.8421	838.072	374.233	-12.8618	828.213	440.454	-288.265	1105.65	-58.5804	-0	0	0	-0	0	0	-0	0	0	-269.659	840.205	-89.61190000000001	-312.792	854.5890000000001	-80.1414	-245.488	851.891	-49.9781	-141.664	822.184	-0.612816	-31.1098	626.978	43.6432	-17.7966	726.949	70.3582	-0	0	0	-0	0	0	32.4495	543.65	86.4126	-37.0659	469.534	29.3219	-24.4146	197.763	27.869	15.047	330.143	93.2086	-0	0	0	-0	0	0	-200.524	803.897	344.196	-225.475	588.705	296.904	-134.769	704.096	313.666	-0	0	0	-0	0	0	-166.713	492.979	220.506	-299.006	397.909	300.771	-338.794	193.612	278.608	-253.694	308.052	212.397	-0	0	0	-0	0	0	-444.483	66.37390000000001	217.129	-144.931	50.2093	236.279	-220.905	28.6237	179.658	-239.105	26.5469	295.489	-348.957	28.4618	276.16	-279.594	118.275	230.837	-176.852	38.7877	191.391	-188.742	38.4484	282.282	-69.64579999999999	69.12220000000001	90.2413	222.385	100.853	42.8318	156.048	73.0761	104.885	127.381	66.4924	-5.75449	24.6022	45.8686	18.6179	82.67189999999999	148.429	58.5558	193.981	77.3421	89.7174	181.048	76.8288	-4.0272	-0	0	0	-310.356	1025.81	185.919	-200	0	0	-0	0	200	-0	200	0	
131	2.7	-200.835	1459.83	214.039	-43.3888	1382.23	172.916	-69.5795	1398.51	356.96	-177.275	1429.68	24.7579	-24.7098	1213.87	168.494	-288.276	1270.83	212.477	-89.6926	987.366	316.942	-111.979	980.8630000000001	36.5899	-299.37	1025.29	224.556	-304.928	1024.77	145.932	-301.175	1074.93	184.705	-59.1168	1085.45	460.166	-0	0	0	-0	0	0	-0	0	0	39.6101	824.532	416.057	25.7123	837.296	373.625	-3.07484	827.353	439.803	-282.425	1105.25	-57.8401	-0	0	0	-0	0	0	-0	0	0	-267.834	839.6	-89.1554	-310.669	854.624	-79.34610000000001	-242.835	850.835	-49.6362	-135.252	820.226	-1.30497	-27.5904	623.785	44.4044	-12.3351	723.83	69.93380000000001	-0	0	0	-0	0	0	37.141	541.146	88.46169999999999	-29.8247	466.899	29.8196	-2.08631	197.482	26.9978	29.7226	330.373	92.7666	-0	0	0	-0	0	0	-194.025	803.609	344.129	-221.206	588.557	296.573	-129.61	703.127	313.742	-0	0	0	-0	0	0	-163.406	492.617	221.318	-296.782	398.231	300.854	-337.934	194.123	278.706	-252.265	307.456	212.302	-0	0	0	-0	0	0	-444.206	66.788	217.135	-144.805	50.0223	236.4	-220.694	28.7743	179.535	-238.857	26.571	295.37	-348.867	28.4914	276.163	-279.425	118.383	230.837	-176.675	38.6299	191.367	-188.636	38.4269	282.346	-41.5207	65.4222	88.874	248.66	111.738	41.5631	183.775	80.2589	102.642	154.982	73.05070000000001	-7.92572	53.3033	47.3617	16.8508	106.673	152.3	57.1316	221.373	86.5672	88.3411	208.662	85.7149	-5.48929	-0	0	0	-302.149	1025.03	185.244	-200	0	0	-0	0	200	-0	200	0	
132	2.708333	-191.853	1458.7	213.27	-34.6719	1380.74	172.017	-60.7149	1397.32	356.232	-168.276	1428.52	23.9832	-16.1613	1212.32	168.042	-279.521	1269.92	211.516	-81.8267	986.478	316.57	-103.384	979.271	36.3089	-291.232	1024.42	223.576	-296.482	1023.79	145.13	-292.831	1074	183.618	-49.9661	1084.24	459.377	-0	0	0	-0	0	0	-0	0	0	49.3659	823.543	415.314	35.2901	836.2430000000001	372.806	7.05386	826.439	439.249	-276.39	1104.87	-57.3083	-0	0	0	-0	0	0	-0	0	0	-265.457	838.946	-88.53360000000001	-308.122	854.6130000000001	-78.5878	-240.291	849.372	-48.8473	-128.813	817.952	-1.86782	-24.2646	620.193	45.0695	-7.09833	720.196	69.3661	-0	0	0	-0	0	0	42.0611	538.904	90.9089	-24.3738	465.629	30.3574	17.9758	195.551	27.1862	44.1993	331.047	92.4342	-0	0	0	-0	0	0	-187.678	803.167	344.309	-217.335	588.265	296.981	-124.311	701.965	313.673	-0	0	0	-0	0	0	-160.91	491.846	221.5	-294.584	398.513	301.179	-337.023	194.607	278.816	-250.647	307.302	212.461	-0	0	0	-0	0	0	-443.918	67.2567	217.16	-144.67	49.9124	236.356	-220.512	28.6182	179.569	-238.692	26.4279	295.402	-348.777	28.6053	276.206	-279.157	118.325	230.882	-176.606	38.5554	191.284	-188.582	38.3721	282.338	-14.1932	62.7783	87.57429999999999	273.467	123.526	40.0041	209.966	89.51560000000001	101.906	181.933	80.2817	-8.70607	82.14660000000001	49.6859	15.7887	129.277	157.155	55.8382	247.519	97.2978	87.2492	234.533	95.63290000000001	-6.97801	-0	0	0	-293.857	1024.1	184.353	-200	0	0	-0	0	200	-0	200	0	
